<svg viewBox = "0 0 88 88" width="88" height="88" xmlns="http://www.w3.org/2000/svg"><g transform="matrix(1 0 0 1 44 44)"  ><g style=""   ><g transform="matrix(1 0 0 1 20.01 -19.98)"  ><path style="stroke: none; stroke-width: 1; stroke-dasharray: none; stroke-linecap: butt; stroke-dashoffset: 0; stroke-linejoin: miter; stroke-miterlimit: 4; fill: rgb(237,92,84); fill-rule: nonzero; opacity: 1;"  transform=" translate(-64.01, -24.02)" d="M 44.0252 21.3207 L 66.6786 44.0247 L 75.3491 35.3766 L 83.9971 44.0471 L 44.0421 4.0022 L 52.6901 12.6727 L 44.0252 21.3207 Z" stroke-linecap="round" /></g><g transform="matrix(1 0 0 1 -15.69 19.99)"  ><path style="stroke: none; stroke-width: 1; stroke-dasharray: none; stroke-linecap: butt; stroke-dashoffset: 0; stroke-linejoin: miter; stroke-miterlimit: 4; fill: rgb(99,85,216); fill-rule: nonzero; opacity: 1;"  transform=" translate(-28.31, -63.99)" d="M 35.3042 75.3317 L 43.969 66.6837 L 21.3157 43.9741 L 12.6452 52.6278 L 43.9522 84.0022 L 35.3042 75.3317 Z" stroke-linecap="round" /></g><g transform="matrix(1 0 0 1 -15.65 -20.01)"  ><path style="stroke: none; stroke-width: 1; stroke-dasharray: none; stroke-linecap: butt; stroke-dashoffset: 0; stroke-linejoin: miter; stroke-miterlimit: 4; fill: rgb(237,185,44); fill-rule: nonzero; opacity: 1;"  transform=" translate(-28.35, -23.99)" d="M 44.0252 21.3207 L 35.3715 12.6502 L 44.042 4.0022 L 12.6676 35.3092 L 21.3156 43.9741 L 44.0252 21.3207 Z" stroke-linecap="round" /></g><g transform="matrix(1 0 0 1 0.03 -30.51)"  ><path style="stroke: none; stroke-width: 1; stroke-dasharray: none; stroke-linecap: butt; stroke-dashoffset: 0; stroke-linejoin: miter; stroke-miterlimit: 4; fill: rgb(237,185,44); fill-opacity: 0.5; fill-rule: nonzero; opacity: 1;"  transform=" translate(-44.03, -13.49)" d="M 41.2094 6.82551 L 35.3713 12.6514 L 44.0227 21.3208 L 52.6921 12.6695 L 46.8663 6.83144 C 45.3058 5.2677 42.7731 5.26505 41.2094 6.82551 Z" stroke-linecap="round" /></g><g transform="matrix(1 0 0 1 -30.51 -0.04)"  ><path style="stroke: none; stroke-width: 1; stroke-dasharray: none; stroke-linecap: butt; stroke-dashoffset: 0; stroke-linejoin: miter; stroke-miterlimit: 4; fill: rgb(99,85,216); fill-rule: nonzero; opacity: 1;"  transform=" translate(-13.49, -43.96)" d="M 12.6695 35.3014 L 6.83139 41.1273 C 5.26766 42.6878 5.265 45.2204 6.82546 46.7841 L 12.6513 52.6222 L 21.3208 43.9709 L 12.6695 35.3014 Z" stroke-linecap="round" /></g><g transform="matrix(1 0 0 1 19.97 20.01)"  ><path style="stroke: none; stroke-width: 1; stroke-dasharray: none; stroke-linecap: butt; stroke-dashoffset: 0; stroke-linejoin: miter; stroke-miterlimit: 4; fill: rgb(225,107,221); fill-rule: nonzero; opacity: 1;"  transform=" translate(-63.97, -64.01)" d="M 66.6786 44.0247 L 43.9691 66.6837 L 52.6227 75.3542 L 43.9522 84.0022 L 83.9971 44.0471 L 75.3266 52.6952 L 66.6786 44.0247 Z" stroke-linecap="round" /></g><g transform="matrix(1 0 0 1 30.5 0.03)"  ><path style="stroke: none; stroke-width: 1; stroke-dasharray: none; stroke-linecap: butt; stroke-dashoffset: 0; stroke-linejoin: miter; stroke-miterlimit: 4; fill: rgb(225,107,221); fill-rule: nonzero; opacity: 1;"  transform=" translate(-74.5, -44.03)" d="M 75.3423 35.3714 L 66.6728 44.0227 L 75.3241 52.6922 L 81.1622 46.8663 C 82.7259 45.3058 82.7286 42.7732 81.1681 41.2095 L 75.3423 35.3714 Z" stroke-linecap="round" /></g><g transform="matrix(1 0 0 1 -0.04 30.5)"  ><path style="stroke: none; stroke-width: 1; stroke-dasharray: none; stroke-linecap: butt; stroke-dashoffset: 0; stroke-linejoin: miter; stroke-miterlimit: 4; fill: rgb(225,107,221); fill-opacity: 0.5; fill-rule: nonzero; opacity: 1;"  transform=" translate(-43.96, -74.5)" d="M 43.9709 66.6729 L 35.3014 75.3242 L 41.1273 81.1623 C 42.6877 82.726 45.2204 82.7287 46.7841 81.1682 L 52.6222 75.3424 L 43.9709 66.6729 Z" stroke-linecap="round" /></g></g></g></svg>